<?xml version="1.0" encoding="UTF-8" standalone="no"?><svg xmlns="http://www.w3.org/2000/svg" xmlns:xlink="http://www.w3.org/1999/xlink" clip-rule="evenodd" stroke-miterlimit="4.00" viewBox="0 0 640 1136"><desc>SVG generated by Keynote</desc><defs></defs><g transform="matrix(1.00, 0.00, -0.00, -1.00, 0.0, 1136.0)"><path d="M 0.0 1136.0 L 640.0 1136.0 L 640.0 0.0 L 0.0 0.0 Z M 0.0 1136.0 " fill="#FEFFFF"></path><image xlink:href="3A723B51918116CD24AC3DD7EB319D27.jpeg" width="429.00" height="768.00" transform="matrix(1.49, 0.00, -0.00, -1.49, 0.0, 1136.0)"></image><text xml:space="preserve" font-family="ChalkboardSE-Regular" font-size="65.0" fill="#FEFFFE" transform="matrix(1.00, 0.00, -0.00, -1.00, 44.0, 1035.0)">O</text><text xml:space="preserve" font-family="ChalkboardSE-Regular" font-size="65.0" fill="#FEFFFE" transform="matrix(1.00, 0.00, -0.00, -1.00, 91.2, 1035.0)">n</text><text xml:space="preserve" font-family="ChalkboardSE-Regular" font-size="65.0" fill="#FEFFFE" transform="matrix(1.00, 0.00, -0.00, -1.00, 124.4, 1035.0)"> </text><text xml:space="preserve" font-family="ChalkboardSE-Regular" font-size="65.0" fill="#FEFFFE" transform="matrix(1.00, 0.00, -0.00, -1.00, 149.3, 1035.0)">t</text><text xml:space="preserve" font-family="ChalkboardSE-Regular" font-size="65.0" fill="#FEFFFE" transform="matrix(1.00, 0.00, -0.00, -1.00, 179.0, 1035.0)">h</text><text xml:space="preserve" font-family="ChalkboardSE-Regular" font-size="65.0" fill="#FEFFFE" transform="matrix(1.00, 0.00, -0.00, -1.00, 214.4, 1035.0)">e</text><text xml:space="preserve" font-family="ChalkboardSE-Regular" font-size="65.0" fill="#FEFFFE" transform="matrix(1.00, 0.00, -0.00, -1.00, 248.5, 1035.0)"> </text><text xml:space="preserve" font-family="ChalkboardSE-Regular" font-size="65.0" fill="#FEFFFE" transform="matrix(1.00, 0.00, -0.00, -1.00, 273.4, 1035.0)">q</text><text xml:space="preserve" font-family="ChalkboardSE-Regular" font-size="65.0" fill="#FEFFFE" transform="matrix(1.00, 0.00, -0.00, -1.00, 307.0, 1035.0)">u</text><text xml:space="preserve" font-family="ChalkboardSE-Regular" font-size="65.0" fill="#FEFFFE" transform="matrix(1.00, 0.00, -0.00, -1.00, 341.3, 1035.0)">a</text><text xml:space="preserve" font-family="ChalkboardSE-Regular" font-size="65.0" fill="#FEFFFE" transform="matrix(1.00, 0.00, -0.00, -1.00, 378.3, 1035.0)">d</text><text xml:space="preserve" font-family="ChalkboardSE-Regular" font-size="40.0" fill="#FEFFFE" transform="matrix(1.00, 0.00, -0.00, -1.00, 52.0, 964.0)">N</text><text xml:space="preserve" font-family="ChalkboardSE-Regular" font-size="40.0" fill="#FEFFFE" transform="matrix(1.00, 0.00, -0.00, -1.00, 78.3, 964.0)">i</text><text xml:space="preserve" font-family="ChalkboardSE-Regular" font-size="40.0" fill="#FEFFFE" transform="matrix(1.00, 0.00, -0.00, -1.00, 87.3, 964.0)">c</text><text xml:space="preserve" font-family="ChalkboardSE-Regular" font-size="40.0" fill="#FEFFFE" transform="matrix(1.00, 0.00, -0.00, -1.00, 106.4, 964.0)">k</text><text xml:space="preserve" font-family="ChalkboardSE-Regular" font-size="40.0" fill="#FEFFFE" transform="matrix(1.00, 0.00, -0.00, -1.00, 127.5, 964.0)"> </text><text xml:space="preserve" font-family="ChalkboardSE-Regular" font-size="40.0" fill="#FEFFFE" transform="matrix(1.00, 0.00, -0.00, -1.00, 142.8, 964.0)">B</text><text xml:space="preserve" font-family="ChalkboardSE-Regular" font-size="40.0" fill="#FEFFFE" transform="matrix(1.00, 0.00, -0.00, -1.00, 165.6, 964.0)">a</text><text xml:space="preserve" font-family="ChalkboardSE-Regular" font-size="40.0" fill="#FEFFFE" transform="matrix(1.00, 0.00, -0.00, -1.00, 186.5, 964.0)">r</text><text xml:space="preserve" font-family="ChalkboardSE-Regular" font-size="40.0" fill="#FEFFFE" transform="matrix(1.00, 0.00, -0.00, -1.00, 205.2, 964.0)">r</text><text xml:space="preserve" font-family="ChalkboardSE-Regular" font-size="40.0" fill="#FEFFFE" transform="matrix(1.00, 0.00, -0.00, -1.00, 222.7, 964.0)"> </text><text xml:space="preserve" font-family="ChalkboardSE-Regular" font-size="40.0" fill="#FEFFFE" transform="matrix(1.00, 0.00, -0.00, -1.00, 238.0, 964.0)">•</text><text xml:space="preserve" font-family="ChalkboardSE-Regular" font-size="40.0" fill="#FEFFFE" transform="matrix(1.00, 0.00, -0.00, -1.00, 255.9, 964.0)"> </text><text xml:space="preserve" font-family="ChalkboardSE-Regular" font-size="40.0" fill="#FEFFFE" transform="matrix(1.00, 0.00, -0.00, -1.00, 271.2, 964.0)">J</text><text xml:space="preserve" font-family="ChalkboardSE-Regular" font-size="40.0" fill="#FEFFFE" transform="matrix(1.00, 0.00, -0.00, -1.00, 292.2, 964.0)">u</text><text xml:space="preserve" font-family="ChalkboardSE-Regular" font-size="40.0" fill="#FEFFFE" transform="matrix(1.00, 0.00, -0.00, -1.00, 314.0, 964.0)">n</text><text xml:space="preserve" font-family="ChalkboardSE-Regular" font-size="40.0" fill="#FEFFFE" transform="matrix(1.00, 0.00, -0.00, -1.00, 335.0, 964.0)">e</text><text xml:space="preserve" font-family="ChalkboardSE-Regular" font-size="40.0" fill="#FEFFFE" transform="matrix(1.00, 0.00, -0.00, -1.00, 356.1, 964.0)"> </text><text xml:space="preserve" font-family="ChalkboardSE-Regular" font-size="40.0" fill="#FEFFFE" transform="matrix(1.00, 0.00, -0.00, -1.00, 371.4, 964.0)">2</text><text xml:space="preserve" font-family="ChalkboardSE-Regular" font-size="40.0" fill="#FEFFFE" transform="matrix(1.00, 0.00, -0.00, -1.00, 394.1, 964.0)">0</text><text xml:space="preserve" font-family="ChalkboardSE-Regular" font-size="40.0" fill="#FEFFFE" transform="matrix(1.00, 0.00, -0.00, -1.00, 416.9, 964.0)">1</text><text xml:space="preserve" font-family="ChalkboardSE-Regular" font-size="40.0" fill="#FEFFFE" transform="matrix(1.00, 0.00, -0.00, -1.00, 437.6, 964.0)">6</text><text xml:space="preserve" font-family="ChalkboardSE-Regular" font-size="40.0" fill="#FEFFFE" transform="matrix(1.00, 0.00, -0.00, -1.00, 460.4, 964.0)"> </text></g></svg>